<mxfile host="65bd71144e">
    <diagram id="Ey7StZpdLea9tsIXN3ZU" name="Welcome Page">
        <mxGraphModel dx="714" dy="696" grid="1" gridSize="10" guides="1" tooltips="1" connect="1" arrows="1" fold="1" page="1" pageScale="1" pageWidth="850" pageHeight="1100" math="0" shadow="0">
            <root>
                <mxCell id="0"/>
                <mxCell id="1" parent="0"/>
                <mxCell id="2" value="" style="rounded=0;whiteSpace=wrap;html=1;fillColor=#e1d5e7;strokeColor=#9673a6;" vertex="1" parent="1">
                    <mxGeometry x="40" y="20" width="580" height="500" as="geometry"/>
                </mxCell>
                <mxCell id="3" value="Welcome to Boredom Slayer" style="rounded=0;whiteSpace=wrap;html=1;fillColor=#0050ef;fontColor=#ffffff;strokeColor=#001DBC;" vertex="1" parent="1">
                    <mxGeometry x="80" y="40" width="510" height="60" as="geometry"/>
                </mxCell>
                <mxCell id="4" value="Choose your Avatar!" style="rounded=1;whiteSpace=wrap;html=1;" vertex="1" parent="1">
                    <mxGeometry x="265" y="245" width="130" height="50" as="geometry"/>
                </mxCell>
            </root>
        </mxGraphModel>
    </diagram>
    <diagram id="pU5leNefyqLEHFt1Rv2R" name="Game Hub">
        <mxGraphModel dx="714" dy="696" grid="1" gridSize="10" guides="1" tooltips="1" connect="1" arrows="1" fold="1" page="1" pageScale="1" pageWidth="850" pageHeight="1100" math="0" shadow="0">
            <root>
                <mxCell id="sxuNqQJhvXj1FeuxD1kq-0"/>
                <mxCell id="sxuNqQJhvXj1FeuxD1kq-1" parent="sxuNqQJhvXj1FeuxD1kq-0"/>
                <mxCell id="M5mivjZ78FhdkwT4AMUi-0" value="" style="rounded=0;whiteSpace=wrap;html=1;fillColor=#e1d5e7;strokeColor=#9673a6;" vertex="1" parent="sxuNqQJhvXj1FeuxD1kq-1">
                    <mxGeometry x="40" y="20" width="580" height="500" as="geometry"/>
                </mxCell>
                <mxCell id="M5mivjZ78FhdkwT4AMUi-1" value="Name:&lt;br&gt;Session Score:&lt;br&gt;Recent Achievment" style="rounded=0;whiteSpace=wrap;html=1;fillColor=#0050ef;fontColor=#ffffff;strokeColor=#001DBC;align=left;" vertex="1" parent="sxuNqQJhvXj1FeuxD1kq-1">
                    <mxGeometry x="460" y="40" width="130" height="60" as="geometry"/>
                </mxCell>
                <mxCell id="M5mivjZ78FhdkwT4AMUi-3" value="Profile Pic" style="shape=umlActor;verticalLabelPosition=bottom;verticalAlign=top;html=1;outlineConnect=0;fillColor=#d5e8d4;strokeColor=#82b366;" vertex="1" parent="sxuNqQJhvXj1FeuxD1kq-1">
                    <mxGeometry x="410" y="40" width="30" height="60" as="geometry"/>
                </mxCell>
                <mxCell id="M5mivjZ78FhdkwT4AMUi-5" value="" style="shape=process;whiteSpace=wrap;html=1;backgroundOutline=1;" vertex="1" parent="sxuNqQJhvXj1FeuxD1kq-1">
                    <mxGeometry x="135" y="200" width="390" height="180" as="geometry"/>
                </mxCell>
                <mxCell id="M5mivjZ78FhdkwT4AMUi-6" value="Choose your Game" style="text;html=1;align=center;verticalAlign=middle;whiteSpace=wrap;rounded=0;fontColor=#000000;" vertex="1" parent="sxuNqQJhvXj1FeuxD1kq-1">
                    <mxGeometry x="250" y="160" width="160" height="30" as="geometry"/>
                </mxCell>
                <mxCell id="M5mivjZ78FhdkwT4AMUi-8" value="&lt;font color=&quot;#000000&quot;&gt;Tic Tac Toe&lt;/font&gt;" style="rounded=1;whiteSpace=wrap;html=1;fillColor=#ffe6cc;strokeColor=#d79b00;" vertex="1" parent="sxuNqQJhvXj1FeuxD1kq-1">
                    <mxGeometry x="270" y="330" width="120" height="30" as="geometry"/>
                </mxCell>
                <mxCell id="M5mivjZ78FhdkwT4AMUi-9" value="&lt;font color=&quot;#000000&quot;&gt;...&lt;/font&gt;" style="rounded=1;whiteSpace=wrap;html=1;fillColor=#ffe6cc;strokeColor=#d79b00;" vertex="1" parent="sxuNqQJhvXj1FeuxD1kq-1">
                    <mxGeometry x="490" y="330" width="30" height="30" as="geometry"/>
                </mxCell>
                <mxCell id="M5mivjZ78FhdkwT4AMUi-10" value="&lt;font color=&quot;#000000&quot;&gt;...&lt;/font&gt;" style="rounded=1;whiteSpace=wrap;html=1;fillColor=#ffe6cc;strokeColor=#d79b00;" vertex="1" parent="sxuNqQJhvXj1FeuxD1kq-1">
                    <mxGeometry x="140" y="330" width="30" height="30" as="geometry"/>
                </mxCell>
                <mxCell id="M5mivjZ78FhdkwT4AMUi-11" value="" style="triangle;whiteSpace=wrap;html=1;fontColor=#ffffff;fillColor=#008a00;strokeColor=#005700;" vertex="1" parent="sxuNqQJhvXj1FeuxD1kq-1">
                    <mxGeometry x="510" y="240" width="60" height="80" as="geometry"/>
                </mxCell>
                <mxCell id="M5mivjZ78FhdkwT4AMUi-12" value="" style="triangle;whiteSpace=wrap;html=1;fontColor=#ffffff;fillColor=#008a00;strokeColor=#005700;rotation=-180;" vertex="1" parent="sxuNqQJhvXj1FeuxD1kq-1">
                    <mxGeometry x="100" y="240" width="60" height="80" as="geometry"/>
                </mxCell>
            </root>
        </mxGraphModel>
    </diagram>
</mxfile>